<svg width="91" height="90" viewBox="0 0 91 90" fill="none" xmlns="http://www.w3.org/2000/svg">
<rect x="0.615234" width="89.9999" height="89.9999" rx="16" fill="white"/>
<path fill-rule="evenodd" clip-rule="evenodd" d="M60.3512 29C60.7758 29 61.1398 29.1213 61.3825 29.364C61.6251 29.546 61.6858 29.9099 61.6858 30.2739C61.6858 30.6379 61.5645 30.9412 61.3218 31.1839C61.0792 31.4265 60.7758 31.5479 60.3512 31.5479C59.9265 31.5479 59.6232 31.4265 59.3806 31.1839C59.1379 31.0019 59.0166 30.6379 59.0166 30.2739C59.0166 29.9099 59.1379 29.6066 59.3806 29.364C59.6232 29.1213 59.9265 29 60.3512 29ZM33.842 44.4082H35.116C35.4193 44.4082 35.5406 44.2869 35.5406 43.9836V36.4007C35.5406 35.3694 35.298 34.5808 34.752 34.0348C34.206 33.4889 33.4781 33.1855 32.4468 33.1855C31.0515 33.1855 29.5956 33.6709 28.2004 34.7021C27.715 33.6709 26.8051 33.1855 25.4705 33.1855C24.1359 33.1855 22.8013 33.6709 21.4667 34.5808L21.3454 33.9135C21.3454 33.7315 21.2847 33.6709 21.1634 33.6102C21.1028 33.5495 20.9814 33.5495 20.8601 33.5495H19.8895C19.5862 33.5495 19.4648 33.6709 19.4648 33.9742V44.0443C19.4648 44.3476 19.5862 44.4689 19.8895 44.4689H21.1634C21.4667 44.4689 21.5881 44.3476 21.5881 44.0443V35.8547C22.6193 35.2481 23.6506 34.8841 24.7425 34.8841C25.3492 34.8841 25.7738 35.0661 26.0165 35.4301C26.2591 35.7941 26.4411 36.2794 26.4411 37.0073V43.9836C26.4411 44.2869 26.5624 44.4082 26.8658 44.4082H28.1397C28.443 44.4082 28.5643 44.2869 28.5643 43.9836V36.522V36.158V35.8547C29.6563 35.1874 30.6875 34.8841 31.7188 34.8841C32.3255 34.8841 32.7501 35.0661 32.9928 35.4301C33.2354 35.7941 33.4174 36.2794 33.4174 37.0073V43.9836C33.4174 44.2869 33.5387 44.4082 33.842 44.4082ZM53.3148 43.0737C53.9821 43.0737 54.5281 42.8917 54.8921 42.649C55.2561 42.4064 55.438 41.9817 55.438 41.4964C55.438 41.1324 55.3774 40.8898 55.1347 40.6471C54.8921 40.4045 54.5281 40.2225 53.9215 39.9798L52.1016 39.3125C50.5243 38.7059 49.7357 37.6746 49.7357 36.2794C49.7357 35.3694 50.0997 34.5808 50.8276 34.0348C51.5556 33.4889 52.5262 33.1855 53.6788 33.1855C54.5888 33.1855 55.4987 33.3675 56.4087 33.6709C56.5906 33.7315 56.712 33.7922 56.7726 33.9135C56.8333 34.0348 56.894 34.1562 56.894 34.3381V34.9448C56.894 35.1874 56.7726 35.3088 56.5906 35.3088C56.5532 35.3088 56.4693 35.2856 56.3535 35.2536C56.2819 35.2338 56.198 35.2106 56.1053 35.1874C55.3774 34.9448 54.5888 34.8235 53.8001 34.8235C52.4049 34.8235 51.7376 35.3088 51.7376 36.2187C51.7376 36.6434 51.8589 36.886 52.1016 37.1287C52.2836 37.3713 52.7689 37.614 53.4362 37.8566L55.1347 38.5239C55.984 38.8272 56.5906 39.2519 56.9546 39.6765C57.3186 40.1618 57.5006 40.7078 57.5006 41.4357C57.5006 42.467 57.1366 43.2556 56.348 43.8623C55.5594 44.4689 54.5888 44.7722 53.3148 44.7722C52.1016 44.7722 51.0096 44.5902 50.039 44.1656C49.857 44.1049 49.7357 43.9836 49.675 43.9229C49.6144 43.8016 49.5537 43.6803 49.5537 43.4983V42.8917C49.5537 42.649 49.6144 42.5277 49.7964 42.5277C49.8852 42.5277 50.0065 42.5602 50.1603 42.6014L50.1604 42.6014C50.2167 42.6165 50.2773 42.6328 50.3423 42.649C51.3129 42.9523 52.2836 43.0737 53.3148 43.0737ZM45.3681 41.9821V33.9139C45.3681 33.6712 45.4894 33.4893 45.8534 33.4893H47.1273C47.4307 33.4893 47.552 33.6106 47.552 33.9139V43.9233C47.552 44.2267 47.4307 44.348 47.1273 44.348H46.2174C46.0354 44.348 45.9141 44.348 45.8534 44.2873C45.7321 44.2267 45.6714 44.166 45.6714 43.984L45.5501 43.256C44.2155 44.2267 42.8203 44.712 41.425 44.712C40.3937 44.712 39.6051 44.4086 39.0591 43.8627C38.5132 43.3167 38.2705 42.4674 38.2705 41.4361V33.9139C38.2705 33.6106 38.3918 33.4893 38.6952 33.4893H39.9691C40.2724 33.4893 40.3937 33.6106 40.3937 33.9139V40.7688C40.3937 41.5575 40.515 42.1034 40.8184 42.4674C41.1217 42.8314 41.607 43.0134 42.2743 43.0134C43.3056 43.0134 44.3368 42.6494 45.3681 41.9821ZM46.5204 56.6628C53.072 56.6628 60.2909 55.2675 66.9032 52.477C67.9345 52.0524 68.7838 53.1443 67.7525 53.8723C61.8682 58.24 53.3146 60.5452 45.9137 60.5452C35.601 60.5452 26.2588 56.7234 19.2219 50.3538C18.7972 49.9292 19.0399 49.4438 19.4645 49.4438C19.5859 49.4438 19.7072 49.5045 19.8285 49.5652C27.4114 53.9936 36.8142 56.6628 46.5204 56.6628ZM66.7216 35.9158C67.2676 35.3091 68.1169 35.0058 69.3302 35.0058C69.9368 35.0058 70.5434 35.0665 71.0894 35.2485C71.2714 35.3091 71.332 35.3091 71.4534 35.3091C71.6354 35.3091 71.7567 35.1878 71.7567 34.8845V34.2779C71.7567 34.0959 71.696 33.9139 71.6354 33.8532C71.5747 33.7926 71.4534 33.6712 71.3321 33.6106C70.5434 33.4286 69.7548 33.2466 69.0268 33.2466C67.3283 33.2466 66.0543 33.7319 65.0837 34.7632C64.1738 35.7338 63.6885 37.1897 63.6885 39.0096C63.6885 40.8295 64.1131 42.2247 65.0231 43.1954C65.933 44.166 67.2069 44.6513 68.9055 44.6513C69.8155 44.6513 70.6648 44.5299 71.3321 44.2266C71.514 44.166 71.6354 44.1053 71.696 43.984C71.7567 43.9233 71.7567 43.7413 71.7567 43.5593V42.9527C71.7567 42.6494 71.6354 42.5281 71.4534 42.5281C71.3927 42.5281 71.2714 42.5281 71.1501 42.5887C70.4828 42.7707 69.8155 42.892 69.2088 42.892C68.0562 42.892 67.2069 42.5887 66.661 41.9821C66.115 41.3755 65.8724 40.4048 65.8724 39.1309V38.8276C65.933 37.493 66.1757 36.5224 66.7216 35.9158ZM72.7873 49.1401C73.4545 49.9894 72.6053 55.5097 69.4508 58.1789C68.9048 58.5429 68.4802 58.3609 68.6622 57.8149C69.3901 56.0557 70.9674 52.0519 70.2394 51.0813C69.4508 50.1107 65.2043 50.596 63.3238 50.8386C62.7778 50.8993 62.6565 50.414 63.2025 50.05C64.9617 48.8368 67.2669 48.4121 69.2081 48.4121C71.028 48.4121 72.4839 48.7761 72.7873 49.1401ZM61.0189 33.4893H59.745C59.4416 33.4893 59.3203 33.6106 59.3203 33.9139V43.984C59.3203 44.2873 59.4416 44.4086 59.745 44.4086H61.0189C61.3222 44.4086 61.4435 44.2873 61.4435 43.984V33.9139C61.4435 33.6712 61.3222 33.4893 61.0189 33.4893Z" fill="url(#paint0_linear_92_286)"/>
<defs>
<linearGradient id="paint0_linear_92_286" x1="29.7406" y1="60.9064" x2="64.19" y2="26.457" gradientUnits="userSpaceOnUse">
<stop stop-color="#0C6CB3"/>
<stop offset="0.2911" stop-color="#1E84C4"/>
<stop offset="0.8873" stop-color="#4CC0EF"/>
<stop offset="1" stop-color="#4CC0EF"/>
</linearGradient>
</defs>
</svg>
