<svg xmlns="http://www.w3.org/2000/svg" fill="none" viewBox="0 0 134 134"><path fill="#F9AAA5" d="M65.0473 8.82133C65.51 6.73102 68.49 6.73101 68.9527 8.82133L69.4745 11.1786C69.9012 13.1058 72.5655 13.3155 73.2883 11.4787L74.1725 9.23213C74.9565 7.23994 77.8998 7.70611 78.0298 9.84308L78.1765 12.2529C78.2963 14.2231 80.8951 14.847 81.8964 13.146L83.121 11.0654C84.2071 9.22035 87.0412 10.1412 86.8354 12.2722L86.6032 14.6753C86.4134 16.6401 88.8825 17.6628 90.1376 16.1393L91.6727 14.2759C93.0339 12.6235 95.6892 13.9764 95.1525 16.0489L94.5472 18.3861C94.0524 20.297 96.3311 21.6934 97.8091 20.385L99.6168 18.7847C101.22 17.3656 103.631 19.1172 102.776 21.0803L101.813 23.294C101.025 25.1039 103.058 26.8396 104.722 25.7785L106.758 24.4807C108.563 23.3298 110.67 25.437 109.519 27.2423L108.221 29.278C107.16 30.9425 108.896 32.9747 110.706 32.187L112.92 31.2236C114.883 30.3693 116.634 32.7802 115.215 34.3832L113.615 36.1909C112.307 37.6689 113.703 39.9476 115.614 39.4528L117.951 38.8475C120.024 38.3108 121.377 40.9661 119.724 42.3273L117.861 43.8624C116.337 45.1175 117.36 47.5866 119.325 47.3968L121.728 47.1646C123.859 46.9588 124.78 49.7929 122.935 50.879L120.854 52.1036C119.153 53.1049 119.777 55.7037 121.747 55.8235L124.157 55.9702C126.294 56.1002 126.76 59.0435 124.768 59.8275L122.521 60.7117C120.685 61.4345 120.894 64.0988 122.821 64.5255L125.179 65.0473C127.269 65.51 127.269 68.49 125.179 68.9527L122.821 69.4745C120.894 69.9012 120.685 72.5655 122.521 73.2883L124.768 74.1725C126.76 74.9565 126.294 77.8998 124.157 78.0298L121.747 78.1765C119.777 78.2963 119.153 80.8951 120.854 81.8963L122.935 83.121C124.78 84.2071 123.859 87.0412 121.728 86.8354L119.325 86.6032C117.36 86.4134 116.337 88.8825 117.861 90.1376L119.724 91.6727C121.377 93.0339 120.024 95.6892 117.951 95.1525L115.614 94.5472C113.703 94.0524 112.307 96.3311 113.615 97.8091L115.215 99.6168C116.634 101.22 114.883 103.631 112.92 102.776L110.706 101.813C108.896 101.025 107.16 103.058 108.221 104.722L109.519 106.758C110.67 108.563 108.563 110.67 106.758 109.519L104.722 108.221C103.058 107.16 101.025 108.896 101.813 110.706L102.776 112.92C103.631 114.883 101.22 116.634 99.6168 115.215L97.8091 113.615C96.3312 112.307 94.0524 113.703 94.5472 115.614L95.1525 117.951C95.6892 120.024 93.0339 121.377 91.6727 119.724L90.1376 117.861C88.8825 116.337 86.4134 117.36 86.6032 119.325L86.8354 121.728C87.0412 123.859 84.2071 124.78 83.121 122.935L81.8964 120.854C80.8951 119.153 78.2963 119.777 78.1765 121.747L78.0298 124.157C77.8998 126.294 74.9565 126.76 74.1725 124.768L73.2883 122.521C72.5655 120.685 69.9012 120.894 69.4745 122.821L68.9527 125.179C68.49 127.269 65.51 127.269 65.0473 125.179L64.5255 122.821C64.0988 120.894 61.4345 120.685 60.7117 122.521L59.8275 124.768C59.0435 126.76 56.1002 126.294 55.9702 124.157L55.8235 121.747C55.7037 119.777 53.1049 119.153 52.1036 120.854L50.879 122.935C49.7929 124.78 46.9588 123.859 47.1646 121.728L47.3968 119.325C47.5866 117.36 45.1175 116.337 43.8624 117.861L42.3273 119.724C40.9661 121.377 38.3108 120.024 38.8475 117.951L39.4528 115.614C39.9476 113.703 37.6689 112.307 36.1909 113.615L34.3832 115.215C32.7802 116.634 30.3693 114.883 31.2236 112.92L32.187 110.706C32.9747 108.896 30.9425 107.16 29.278 108.221L27.2422 109.519C25.437 110.67 23.3298 108.563 24.4807 106.758L25.7785 104.722C26.8396 103.058 25.1039 101.025 23.294 101.813L21.0803 102.776C19.1172 103.631 17.3656 101.22 18.7847 99.6168L20.385 97.8091C21.6934 96.3312 20.297 94.0524 18.3861 94.5472L16.0489 95.1525C13.9764 95.6892 12.6235 93.0339 14.2759 91.6727L16.1393 90.1376C17.6628 88.8825 16.6401 86.4134 14.6753 86.6032L12.2722 86.8354C10.1412 87.0412 9.22035 84.2071 11.0654 83.121L13.146 81.8964C14.847 80.8951 14.2231 78.2963 12.2529 78.1765L9.84308 78.0298C7.70612 77.8998 7.23994 74.9565 9.23213 74.1725L11.4787 73.2883C13.3155 72.5655 13.1058 69.9012 11.1786 69.4745L8.82133 68.9527C6.73102 68.49 6.73101 65.51 8.82133 65.0473L11.1786 64.5255C13.1058 64.0988 13.3155 61.4345 11.4787 60.7117L9.23213 59.8275C7.23994 59.0435 7.70611 56.1002 9.84308 55.9702L12.2529 55.8235C14.2231 55.7037 14.847 53.1049 13.146 52.1036L11.0654 50.879C9.22036 49.7929 10.1412 46.9588 12.2722 47.1646L14.6753 47.3968C16.6401 47.5866 17.6628 45.1175 16.1393 43.8624L14.2759 42.3273C12.6235 40.9661 13.9764 38.3108 16.0489 38.8475L18.3861 39.4528C20.297 39.9476 21.6934 37.6689 20.385 36.1909L18.7847 34.3832C17.3656 32.7802 19.1172 30.3693 21.0802 31.2236L23.294 32.187C25.1039 32.9747 26.8396 30.9425 25.7785 29.278L24.4807 27.2422C23.3298 25.437 25.437 23.3298 27.2423 24.4807L29.278 25.7785C30.9425 26.8396 32.9747 25.1039 32.187 23.294L31.2236 21.0803C30.3693 19.1172 32.7802 17.3656 34.3832 18.7847L36.1909 20.385C37.6688 21.6934 39.9476 20.297 39.4528 18.3861L38.8475 16.0489C38.3108 13.9764 40.9661 12.6235 42.3273 14.2759L43.8624 16.1393C45.1175 17.6628 47.5866 16.6401 47.3968 14.6753L47.1646 12.2722C46.9588 10.1412 49.7929 9.22035 50.879 11.0654L52.1036 13.146C53.1049 14.847 55.7036 14.2231 55.8235 12.2529L55.9702 9.84308C56.1002 7.70612 59.0435 7.23993 59.8275 9.23213L60.7117 11.4787C61.4345 13.3155 64.0988 13.1058 64.5255 11.1786L65.0473 8.82133Z"/><path fill="#2F383C" d="M50.0994 62.2295V51.0295H52.1474L57.4114 58.9175V51.0295H59.4594V62.2295H57.4114L52.1474 54.3575V62.2295H50.0994ZM61.3106 62.2295V51.0295H68.6226V52.6775H63.3586V55.7495H68.1426V57.3495H63.3586V60.5815H68.6226V62.2295H61.3106ZM72.5126 62.2295L69.5526 51.0295H71.7446L73.7606 59.9415L76.1286 51.0295H78.3846L80.6886 59.9415L82.7046 51.0295H84.9126L81.8726 62.2295H79.4406L77.2166 53.9255L74.9286 62.2295H72.5126ZM31.3059 82.2295V71.0295H35.4499C36.3459 71.0295 37.0873 71.1788 37.6739 71.4775C38.2606 71.7762 38.6979 72.1868 38.9859 72.7095C39.2739 73.2322 39.4179 73.8188 39.4179 74.4695C39.4179 75.0882 39.2793 75.6588 39.0019 76.1815C38.7246 76.6935 38.2926 77.1095 37.7059 77.4295C37.1193 77.7388 36.3673 77.8935 35.4499 77.8935H33.3539V82.2295H31.3059ZM33.3539 76.2295H35.3219C36.0366 76.2295 36.5486 76.0748 36.8579 75.7655C37.1779 75.4455 37.3379 75.0135 37.3379 74.4695C37.3379 73.9148 37.1779 73.4828 36.8579 73.1735C36.5486 72.8535 36.0366 72.6935 35.3219 72.6935H33.3539V76.2295ZM45.9527 82.4215C44.8327 82.4215 43.8514 82.1762 43.0087 81.6855C42.1767 81.1948 41.5207 80.5175 41.0407 79.6535C40.5714 78.7788 40.3367 77.7708 40.3367 76.6295C40.3367 75.4882 40.5714 74.4855 41.0407 73.6215C41.5207 72.7468 42.1767 72.0642 43.0087 71.5735C43.8514 71.0828 44.8327 70.8375 45.9527 70.8375C47.062 70.8375 48.038 71.0828 48.8807 71.5735C49.7234 72.0642 50.3794 72.7468 50.8487 73.6215C51.318 74.4855 51.5527 75.4882 51.5527 76.6295C51.5527 77.7708 51.318 78.7788 50.8487 79.6535C50.3794 80.5175 49.7234 81.1948 48.8807 81.6855C48.038 82.1762 47.062 82.4215 45.9527 82.4215ZM45.9527 80.5815C47.0194 80.5815 47.8674 80.2295 48.4967 79.5255C49.1367 78.8215 49.4567 77.8562 49.4567 76.6295C49.4567 75.4028 49.1367 74.4375 48.4967 73.7335C47.8674 73.0295 47.0194 72.6775 45.9527 72.6775C44.886 72.6775 44.0327 73.0295 43.3927 73.7335C42.7527 74.4375 42.4327 75.4028 42.4327 76.6295C42.4327 77.8562 42.7527 78.8215 43.3927 79.5255C44.0327 80.2295 44.886 80.5815 45.9527 80.5815ZM53.0409 82.2295V71.0295H56.8649C58.1769 71.0295 59.2543 71.2642 60.0969 71.7335C60.9503 72.1922 61.5796 72.8428 61.9849 73.6855C62.4009 74.5175 62.6089 75.4988 62.6089 76.6295C62.6089 77.7602 62.4009 78.7468 61.9849 79.5895C61.5796 80.4215 60.9503 81.0722 60.0969 81.5415C59.2543 82.0002 58.1769 82.2295 56.8649 82.2295H53.0409ZM55.0889 80.4695H56.7689C57.7076 80.4695 58.4489 80.3202 58.9929 80.0215C59.5369 79.7122 59.9263 79.2748 60.1609 78.7095C60.3956 78.1335 60.5129 77.4402 60.5129 76.6295C60.5129 75.8295 60.3956 75.1415 60.1609 74.5655C59.9263 73.9895 59.5369 73.5468 58.9929 73.2375C58.4489 72.9282 57.7076 72.7735 56.7689 72.7735H55.0889V80.4695ZM69.1679 82.4215C68.0373 82.4215 67.0666 82.1815 66.2559 81.7015C65.4453 81.2108 64.8213 80.5335 64.3839 79.6695C63.9466 78.7948 63.7279 77.7868 63.7279 76.6455C63.7279 75.5042 63.9466 74.4962 64.3839 73.6215C64.8213 72.7468 65.4453 72.0642 66.2559 71.5735C67.0666 71.0828 68.0373 70.8375 69.1679 70.8375C70.5119 70.8375 71.6106 71.1735 72.4639 71.8455C73.3279 72.5068 73.8666 73.4402 74.0799 74.6455H71.8239C71.6853 74.0375 71.3866 73.5628 70.9279 73.2215C70.4799 72.8695 69.8826 72.6935 69.1359 72.6935C68.1013 72.6935 67.2906 73.0455 66.7039 73.7495C66.1173 74.4535 65.8239 75.4188 65.8239 76.6455C65.8239 77.8722 66.1173 78.8375 66.7039 79.5415C67.2906 80.2348 68.1013 80.5815 69.1359 80.5815C69.8826 80.5815 70.4799 80.4215 70.9279 80.1015C71.3866 79.7708 71.6853 79.3175 71.8239 78.7415H74.0799C73.8666 79.8935 73.3279 80.7948 72.4639 81.4455C71.6106 82.0962 70.5119 82.4215 69.1679 82.4215ZM74.7122 82.2295L78.8082 71.0295H81.1122L85.2082 82.2295H83.0322L82.1362 79.6375H77.7682L76.8562 82.2295H74.7122ZM78.3282 78.0375H81.5762L79.9442 73.3815L78.3282 78.0375ZM90.1549 82.4215C89.3336 82.4215 88.6083 82.2828 87.9789 82.0055C87.3496 81.7175 86.8536 81.3122 86.4909 80.7895C86.1283 80.2562 85.9416 79.6108 85.9309 78.8535H88.0909C88.1123 79.3762 88.2989 79.8188 88.6509 80.1815C89.0136 80.5335 89.5096 80.7095 90.1389 80.7095C90.6829 80.7095 91.1149 80.5815 91.4349 80.3255C91.7549 80.0588 91.9149 79.7068 91.9149 79.2695C91.9149 78.8108 91.7709 78.4535 91.4829 78.1975C91.2056 77.9415 90.8323 77.7335 90.3629 77.5735C89.8936 77.4135 89.3923 77.2428 88.8589 77.0615C87.9949 76.7628 87.3336 76.3788 86.8749 75.9095C86.4269 75.4402 86.2029 74.8162 86.2029 74.0375C86.1923 73.3762 86.3469 72.8108 86.6669 72.3415C86.9976 71.8615 87.4456 71.4935 88.0109 71.2375C88.5763 70.9708 89.2269 70.8375 89.9629 70.8375C90.7096 70.8375 91.3656 70.9708 91.9309 71.2375C92.5069 71.5042 92.9549 71.8775 93.2749 72.3575C93.6056 72.8375 93.7816 73.4082 93.8029 74.0695H91.6109C91.6003 73.6748 91.4456 73.3282 91.1469 73.0295C90.8589 72.7202 90.4536 72.5655 89.9309 72.5655C89.4829 72.5548 89.1043 72.6668 88.7949 72.9015C88.4963 73.1255 88.3469 73.4562 88.3469 73.8935C88.3469 74.2668 88.4643 74.5655 88.6989 74.7895C88.9336 75.0028 89.2536 75.1842 89.6589 75.3335C90.0643 75.4828 90.5283 75.6428 91.0509 75.8135C91.6056 76.0055 92.1123 76.2295 92.5709 76.4855C93.0296 76.7415 93.3976 77.0828 93.6749 77.5095C93.9523 77.9255 94.0909 78.4642 94.0909 79.1255C94.0909 79.7122 93.9416 80.2562 93.6429 80.7575C93.3443 81.2588 92.9016 81.6642 92.3149 81.9735C91.7283 82.2722 91.0083 82.4215 90.1549 82.4215ZM98.0252 82.2295V72.6775H94.7612V71.0295H103.353V72.6775H100.073V82.2295H98.0252Z"/></svg>