<svg width="91" height="90" viewBox="0 0 91 90" fill="none" xmlns="http://www.w3.org/2000/svg">
<rect x="0.307617" width="89.9999" height="89.9999" rx="16" fill="white"/>
<path d="M45.3224 22.5C32.8939 22.5 22.8076 32.5796 22.8076 45C22.8076 57.4203 32.8939 67.4999 45.3224 67.4999C57.7509 67.4999 67.8372 57.4203 67.8372 45C67.8372 32.5796 57.7509 22.5 45.3224 22.5Z" fill="#1ED760"/>
<path d="M59.7199 42.7412C59.2478 42.7412 58.9573 42.6233 58.5488 42.3874C52.0849 38.5316 40.5279 37.6062 33.0472 39.6928C32.7203 39.7836 32.3118 39.9287 31.876 39.9287C30.6777 39.9287 29.7607 38.9943 29.7607 37.7876C29.7607 36.5537 30.5233 35.8552 31.3404 35.6193C34.5361 34.6848 38.113 34.2402 42.0077 34.2402C48.635 34.2402 55.5801 35.6193 60.655 38.5769C61.3631 38.9852 61.8261 39.5477 61.8261 40.6273C61.8261 41.8612 60.8275 42.7412 59.7199 42.7412ZM56.9056 49.6545C56.4335 49.6545 56.1157 49.4459 55.7889 49.2735C50.1148 45.9166 41.6536 44.5648 34.1275 46.6061C33.6918 46.7241 33.4557 46.842 33.0472 46.842C32.0758 46.842 31.2859 46.0527 31.2859 45.082C31.2859 44.1112 31.758 43.467 32.6931 43.2039C35.2169 42.4963 37.7953 41.9701 41.5719 41.9701C47.4639 41.9701 53.1561 43.4307 57.6409 46.0981C58.3763 46.5336 58.6668 47.0961 58.6668 47.8854C58.6577 48.8652 57.8951 49.6545 56.9056 49.6545ZM54.4635 55.6061C54.0822 55.6061 53.8461 55.4882 53.492 55.2795C47.827 51.8682 41.236 51.7231 34.7267 53.0567C34.3726 53.1475 33.9096 53.2926 33.6464 53.2926C32.7657 53.2926 32.2119 52.594 32.2119 51.8592C32.2119 50.9247 32.7657 50.4801 33.4466 50.335C40.882 48.6928 48.4807 48.838 54.9628 52.712C55.5166 53.0658 55.8434 53.3834 55.8434 54.209C55.8434 55.0346 55.1988 55.6061 54.4635 55.6061Z" fill="black"/>
</svg>
