<svg width="91" height="90" viewBox="0 0 91 90" fill="none" xmlns="http://www.w3.org/2000/svg">
<rect x="0.229492" width="89.9999" height="89.9999" rx="16" fill="white"/>
<path d="M24.0432 39.505H42.554C47.7353 40.2427 50.9192 42.9765 51.4333 48.3784V52.2545H31.4223C26.0742 51.6162 24.2197 48.65 23.8555 44.6927L24.0432 39.505ZM53.4335 52.2531V46.7546C53.7557 42.6588 55.2545 39.442 60.8742 39.3188H65.9393V44.5051C65.7012 48.8152 63.9391 52.0502 58.0602 52.3791L53.4335 52.2531ZM38.0506 55.1283H52.058V60.7528C52.044 65.7978 49.3083 67.4411 45.305 67.4999H38.0492L38.0506 55.1283ZM52.1841 29.7567C52.1841 33.7587 48.9623 37.0049 44.9926 37.0049C41.0201 37.0049 37.8012 33.7601 37.8012 29.7567C37.797 25.7532 41.0131 22.5028 44.9856 22.5C48.9567 22.4958 52.1798 25.7378 52.1841 29.7413V29.7567Z" fill="#35B3A6"/>
</svg>
