<svg xmlns="http://www.w3.org/2000/svg" fill="none" viewBox="0 0 90 90"><rect width="89.9999" height="89.9999" fill="#fff" rx="16"/><path fill="url(#a)" fill-rule="evenodd" d="M45.1579 22.5C34.0242 22.5388 24.9079 31.5776 24.7527 42.7112C24.6363 51.7306 30.3971 59.4504 38.4467 62.2823C38.6406 62.3599 38.8346 62.1853 38.8152 61.9914C38.7829 61.7586 38.7484 61.5258 38.7139 61.2931L38.7139 61.293C38.6449 60.8275 38.576 60.362 38.5242 59.8965C38.4854 59.6444 38.3303 59.4504 38.1169 59.334C31.7549 56.5603 27.313 50.1789 27.3906 42.7888C27.4876 33.0905 35.4014 25.1961 45.0803 25.1186C54.9919 25.041 63.0802 33.0711 63.0802 42.9634C63.0802 50.2759 58.6578 56.5603 52.354 59.334C52.1212 59.431 51.966 59.6444 51.9466 59.8965L51.6557 61.9914C51.6169 62.2047 51.8303 62.3599 52.0242 62.2823C59.9962 59.4892 65.7182 51.8858 65.7182 42.9634C65.6794 31.6746 56.466 22.4806 45.1579 22.5ZM45.2149 46.066C47.8528 46.066 49.9865 43.9324 49.9865 41.2945C49.9865 38.676 47.8528 36.5229 45.2149 36.5229C42.577 36.5229 40.4434 38.6566 40.4434 41.2945C40.4434 43.9324 42.577 46.066 45.2149 46.066ZM49.4259 49.5193C49.8914 49.9848 50.1242 50.4891 50.2017 51.1874C50.3569 52.5451 50.2793 53.7089 50.1048 55.5904C49.9496 57.3749 49.6586 59.7412 49.2901 62.1658C49.0186 63.8921 48.8052 64.8231 48.6112 65.4826C48.3009 66.5494 47.0983 67.4999 45.2168 67.4999C43.3354 67.4999 42.1522 66.5688 41.8224 65.4826C41.6285 64.8231 41.4151 63.8921 41.1436 62.1658C40.775 59.7606 40.4841 57.3749 40.3289 55.5904L40.3272 55.5694C40.173 53.7003 40.0773 52.5401 40.2319 51.1874C40.3095 50.4891 40.5617 50.0042 41.0078 49.5193C41.8806 48.5882 43.413 48.0063 45.2168 48.0063C47.0207 48.0063 48.553 48.6076 49.4259 49.5193ZM31.5215 42.8088C31.6185 35.5545 37.4375 29.5609 44.6918 29.2894C52.4892 28.979 58.9482 35.2441 58.9288 42.9639C58.9288 47.6579 56.5431 51.8281 52.9353 54.2915C52.7413 54.4273 52.4892 54.2721 52.5086 54.0587C52.5474 53.2247 52.5668 52.4876 52.528 51.7312C52.528 51.479 52.625 51.2462 52.7995 51.0717C54.9526 49.035 56.3103 46.1644 56.3103 42.9833C56.3103 36.7376 51.112 31.6558 44.7888 31.9079C38.9698 32.1407 34.2953 36.8734 34.1401 42.6924C34.0625 45.9898 35.4202 48.9769 37.6509 51.0717C37.8448 51.2462 37.9418 51.479 37.9224 51.7312C37.8836 52.507 37.8836 53.2441 37.9418 54.0781C37.9418 54.2915 37.6896 54.4273 37.5151 54.3109C33.8491 51.8087 31.4634 47.5803 31.5215 42.8088Z" clip-rule="evenodd"/><defs><linearGradient id="a" x1="45.2346" x2="45.2346" y1="22.5" y2="67.4999" gradientUnits="userSpaceOnUse"><stop stop-color="#F452FF"/><stop offset="1" stop-color="#842BC1"/></linearGradient></defs></svg>