<svg xmlns="http://www.w3.org/2000/svg" fill="none" viewBox="0 0 247 36"><g clip-path="url(#a)"><path fill="#1B459C" d="M111.014 35.7271C120.809 35.7271 128.751 27.7289 128.751 17.8636C128.751 7.99822 120.809 0 111.014 0C101.218 0 93.2764 7.99822 93.2764 17.8636C93.2764 27.7289 101.218 35.7271 111.014 35.7271Z"/><path fill="#fff" d="M119.683 19.4258V28.3816H122.918V19.4258C122.918 18.2381 122.637 17.1253 122.084 16.1248C121.532 15.1244 120.783 14.3058 119.858 13.6906C119.327 13.3375 118.732 13.054 118.095 12.856C116.815 12.4601 115.37 12.4601 114.089 12.856C113.452 13.054 112.846 13.3375 112.294 13.6906C111.842 14.0063 111.433 14.3807 111.062 14.7927C111.104 14.8408 111.147 14.8836 111.189 14.9318C111.263 15.0174 111.338 15.1083 111.407 15.1993C111.417 15.21 111.423 15.2207 111.433 15.2314C111.497 15.3116 111.556 15.3972 111.619 15.4828C111.646 15.5149 111.667 15.5524 111.688 15.5898C111.731 15.654 111.779 15.7236 111.821 15.7878C111.89 15.8948 111.954 16.0071 112.018 16.1195C112.028 16.1409 112.039 16.1676 112.05 16.189C112.097 16.2746 112.14 16.3656 112.182 16.4565C112.326 16.7561 112.443 17.0611 112.538 17.3767C112.538 17.3928 112.549 17.4088 112.549 17.4195C112.57 17.4998 112.597 17.5747 112.618 17.6549C112.66 17.8154 112.698 17.9706 112.719 18.1097C112.719 18.1097 112.719 18.115 112.719 18.1204C112.719 18.1257 112.719 18.1311 112.719 18.1204C112.931 17.6549 113.17 17.2216 113.526 16.8685C113.856 16.5368 114.244 16.2746 114.684 16.0874C115.566 15.7075 116.602 15.7075 117.468 16.0874C117.898 16.2746 118.286 16.5421 118.615 16.8685C118.945 17.2002 119.205 17.5854 119.391 18.0241C119.577 18.4574 119.673 18.9282 119.673 19.4151"/><path fill="#8DC63F" d="M112.846 18.7569C112.825 18.5429 112.799 18.3289 112.756 18.1203 112.756 18.1203 112.756 18.1203 112.756 18.1149 112.751 18.0882 112.746 18.0614 112.74 18.0347 112.719 17.9384 112.698 17.8421 112.671 17.7404 112.666 17.7137 112.661 17.6816 112.65 17.6548 112.629 17.5746 112.607 17.4943 112.581 17.4194 112.581 17.4034 112.57 17.3927 112.565 17.3766 112.528 17.2482 112.48 17.1198 112.432 16.9914 112.406 16.9219 112.379 16.8577 112.352 16.7935 112.305 16.6811 112.262 16.5634 112.209 16.4564 112.166 16.3655 112.124 16.2799 112.076 16.1889 112.066 16.1675 112.055 16.1461 112.039 16.1194 111.975 16.007 111.912 15.8947 111.842 15.7877 111.8 15.7181 111.757 15.6539 111.71 15.5897 111.688 15.5523 111.662 15.5202 111.641 15.4827 111.582 15.3971 111.518 15.3115 111.455 15.2313 111.449 15.2206 111.439 15.2099 111.433 15.1992 111.364 15.1082 111.29 15.0173 111.216 14.9317 111.173 14.8835 111.131 14.8407 111.093 14.7979 111.035 14.7337 110.977 14.6642 110.913 14.6 110.908 14.5946 110.902 14.5893 110.892 14.5786 110.796 14.4769 110.695 14.386 110.589 14.2897 110.573 14.2736 110.557 14.2629 110.541 14.2469 110.445 14.1613 110.35 14.081 110.249 14.0061 110.228 13.9901 110.206 13.9687 110.18 13.9526 110.058 13.8617 109.935 13.7707 109.813 13.6905 109.282 13.332 108.687 13.0538 108.05 12.8559 106.769 12.46 105.324 12.46 104.044 12.8559 103.476 13.0324 102.945 13.2732 102.456 13.5781V7.39355H99.2207V28.3548H102.456V19.4257C102.456 18.9335 102.551 18.468 102.737 18.0347 102.923 17.6013 103.184 17.2108 103.502 16.8791 103.821 16.5474 104.204 16.2852 104.644 16.098 105.526 15.7181 106.562 15.7181 107.428 16.098 107.858 16.2852 108.246 16.5527 108.575 16.8791 108.905 17.2108 109.165 17.596 109.351 18.0347 109.537 18.4734 109.633 18.9388 109.633 19.4257V28.3548H112.868V19.4257C112.868 19.201 112.857 18.9816 112.836 18.7676M135.2 8.98779H138.935L145.012 18.4947 151.084 8.98779H154.823V29.093H151.312V14.6748L145.012 24.155H144.895L138.653 14.7337V29.093H135.2V8.98779ZM158.329 21.5979V21.539C158.329 17.2002 161.75 13.6104 166.372 13.6104 170.993 13.6104 174.388 17.1413 174.388 21.4802V21.539C174.388 25.8458 170.967 29.4356 166.319 29.4356 161.67 29.4356 158.334 25.9046 158.334 21.5925M170.94 21.5925V21.5337C170.94 18.864 169.028 16.6491 166.319 16.6491 163.609 16.6491 161.782 18.8319 161.782 21.4748V21.5337C161.782 24.1766 163.694 26.3861 166.372 26.3861 169.049 26.3861 170.935 24.2033 170.935 21.5872M177.32 13.9314H180.767V16.2586C181.74 14.8516 183.137 13.6157 185.474 13.6157 188.868 13.6157 190.834 15.9109 190.834 19.4151V29.0932H187.381V20.4744C187.381 18.1204 186.212 16.7669 184.157 16.7669 182.101 16.7669 180.762 18.1739 180.762 20.5279V29.0879H177.314V13.9207L177.32 13.9314ZM194.633 8.29785H198.341V11.5988H194.633V8.29785ZM194.776 13.926H198.224V29.0932H194.776V13.926ZM203.674 24.8988V16.9166H201.762V13.9313H203.674V9.76904H207.127V13.9313H211.175V16.9166H207.127V24.3531C207.127 25.7013 207.812 26.247 208.981 26.247 209.751 26.247 210.437 26.0758 211.122 25.728V28.5742C210.267 29.0611 209.326 29.35 208.014 29.35 205.475 29.35 203.679 28.2318 203.679 24.8988M213.284 21.5979V21.539C213.284 17.2002 216.705 13.6104 221.327 13.6104 225.948 13.6104 229.343 17.1413 229.343 21.4802V21.539C229.343 25.8458 225.922 29.4356 221.274 29.4356 216.626 29.4356 213.289 25.9046 213.289 21.5925M225.895 21.5925V21.5337C225.895 18.864 223.983 16.6491 221.274 16.6491 218.564 16.6491 216.737 18.8319 216.737 21.4748V21.5337C216.737 24.1766 218.649 26.3861 221.327 26.3861 224.004 26.3861 225.89 24.2033 225.89 21.5872M232.986 13.9313H236.434V17.35C237.374 15.0816 239.117 13.5301 241.767 13.6424V17.3179H241.566C238.543 17.3179 236.434 19.2974 236.434 23.3206V29.0932H232.986V13.926 13.9313ZM244.886 17.5531C245.985 17.5531 246.857 16.6436 246.857 15.5576V15.5469C246.857 14.4608 245.996 13.562 244.886 13.562 243.776 13.562 242.915 14.4715 242.915 15.5576V15.5683C242.915 16.6543 243.776 17.5531 244.886 17.5531ZM244.886 17.3391C243.892 17.3391 243.143 16.5419 243.143 15.5736V15.5629C243.143 14.5946 243.903 13.7814 244.886 13.7814 245.869 13.7814 246.628 14.5839 246.628 15.5522V15.5629C246.628 16.5312 245.869 17.3391 244.886 17.3391ZM244.116 16.5312H244.498V15.8358H244.918L245.396 16.5312H245.858L245.327 15.7662C245.598 15.686 245.789 15.4827 245.789 15.151 245.789 14.7283 245.46 14.5143 245.019 14.5143H244.116V16.5312ZM244.498 15.5148V14.8514H244.987C245.247 14.8514 245.396 14.9691 245.396 15.1831 245.396 15.3757 245.247 15.5148 244.987 15.5148H244.498Z"/><path fill="#1B459C" d="M13.0308 8.98779V17.3498H3.50604V8.98779H0V29.093H3.50604V20.6186H13.0308V29.093H16.5421V8.98779H13.0308ZM19.5332 21.5711V21.5123C19.5332 17.1735 22.5824 13.6157 26.8906 13.6157 31.6822 13.6157 34.1045 17.4035 34.1045 21.7744 34.1045 22.0901 34.078 22.4057 34.0461 22.7481H22.9808C23.3527 25.2198 25.0897 26.5948 27.3156 26.5948 28.9995 26.5948 30.1948 25.9635 31.3953 24.7865L33.4193 26.5948C31.9956 28.3175 30.0248 29.441 27.2624 29.441 22.9011 29.441 19.5332 26.2524 19.5332 21.5711ZM30.6835 20.453C30.4551 18.2114 29.1429 16.4619 26.864 16.4619 24.7551 16.4619 23.2677 18.099 22.9542 20.453H30.6835ZM36.7285 24.7276V24.6687C36.7285 21.3945 39.2677 19.7842 42.9438 19.7842 44.6277 19.7842 45.823 20.041 46.9917 20.4155V20.041C46.9917 17.8849 45.6795 16.74 43.2572 16.74 41.5732 16.74 40.3196 17.1145 38.9543 17.687L38.0406 14.9585C39.6927 14.2149 41.3182 13.7227 43.714 13.7227 45.9664 13.7227 47.6504 14.3272 48.7075 15.4186 49.8177 16.51 50.333 18.1203 50.333 20.0998V29.0878H46.9704V27.1939C45.9452 28.4297 44.3727 29.4034 42.0673 29.4034 39.2412 29.4034 36.7338 27.7663 36.7338 24.7222M47.0554 23.6308V22.5983C46.1736 22.2505 44.9996 21.9937 43.6344 21.9937 41.4085 21.9937 40.0964 22.9407 40.0964 24.5243V24.5831C40.0964 26.049 41.3767 26.8783 43.0341 26.8783 45.313 26.8783 47.0554 25.5568 47.0554 23.6308ZM57.6961 8.12646H54.2432V29.093H57.6961V8.12646ZM63.0501 24.8988V16.9166H61.1377V13.9313H63.0501V9.76904H66.4977V13.9313H70.5456V16.9166H66.4977V24.3531C66.4977 25.7013 67.183 26.247 68.3516 26.247 69.1219 26.247 69.8072 26.0758 70.4924 25.728V28.5742C69.6372 29.0611 68.6969 29.35 67.3848 29.35 64.8456 29.35 63.0501 28.2318 63.0501 24.8988ZM74.2002 8.12646H77.6531V16.2531C78.6252 14.846 80.017 13.6102 82.3597 13.6102 85.7542 13.6102 87.7197 15.9107 87.7197 19.4096V29.0877H84.2721V20.4689C84.2721 18.1149 83.1034 16.7613 81.0476 16.7613 78.9918 16.7613 77.6531 18.1684 77.6531 20.5224V29.0823H74.2002V8.12646Z"/></g><defs><clipPath id="a"><path fill="#fff" d="M0 0H247V36H0z"/></clipPath></defs></svg>