<svg xmlns="http://www.w3.org/2000/svg" width="90" height="90" fill="none"><g clip-path="url(#a)"><path fill="#fff" d="M73.9999 0H16C7.16344 0 0 7.16344 0 16v57.9999c0 8.8366 7.16344 16 16 16h57.9999c8.8366 0 16-7.1634 16-16V16c0-8.83656-7.1634-16-16-16Z"/><path fill="#C6002B" d="M62.1752 27.6361c0 3.2288-1.7451 6.4116-5.1858 9.4618-.1519.1342-.3412.2-.5297.2-.2198 0-.4396-.0902-.5975-.2686-.2924-.3297-.2625-.8342.0684-1.1272 3.0841-2.7326 4.6481-5.5141 4.6481-8.266v-.0387c0-2.2338-1.4014-4.8634-3.1904-5.9851-.3737-.2344-.4863-.7274-.2517-1.1005.2339-.3737.7271-.4863 1.1008-.2527 2.2443 1.4088 3.9378 4.564 3.9378 7.3383v.0387Zm-10.3629 6.7373c-.1234.0692-.2571.1017-.39.1017-.2794 0-.5507-.1472-.6971-.4083-.2152-.3847-.0781-.8716.3072-1.0865 1.8482-1.0352 3.0913-3.0469 3.0961-5.0105-.004-1.8044-.9991-3.4468-2.599-4.2885-.3907-.2056-.5405-.6881-.3351-1.0785.2056-.39.6884-.5401 1.0785-.3351 2.1229 1.1165 3.4434 3.295 3.4529 5.6905v.0245c-.0102 2.519-1.581 5.0844-3.9135 6.3907Zm-6.4112-2.346c-1.9131-.0011-3.4635-1.5522-3.4635-3.4655 0-1.9132 1.5504-3.4643 3.4635-3.4653 1.9131.001 3.4635 1.5521 3.4635 3.4653 0 1.9133-1.5504 3.4644-3.4635 3.4655Zm-5.324 2.0394c-.1465.2611-.4178.4083-.6973.4083-.1329 0-.2665-.0325-.3899-.1017-2.3325-1.3063-3.9033-3.8717-3.9135-6.3907v-.0245c.0095-2.3955 1.33-4.574 3.453-5.6905.39-.205.8728-.0549 1.0784.3351.2054.3904.0556.8729-.3352 1.0785-1.5999.8417-2.5949 2.4841-2.599 4.2885.0049 1.9636 1.248 3.9753 3.0962 5.0105.3853.2149.5223.7018.3073 1.0865Zm-5.137 2.9625c-.158.1784-.3778.2686-.5976.2686-.1885 0-.3777-.0658-.5297-.2-3.4407-3.0502-5.1858-6.233-5.1858-9.4618v-.0387c0-2.7743 1.6935-5.9295 3.9378-7.3383.3738-.2336.8668-.121 1.1008.2527.2346.3731.122.8661-.2517 1.1005-1.7892 1.1217-3.1904 3.7513-3.1904 5.9851v.0387c0 2.7519 1.564 5.5334 4.6481 8.266.3309.293.3608.7975.0685 1.1272Zm20.092-20.4088c-3.9949 0-7.5641 2.1167-9.631 5.2074-2.0669-3.0907-5.6361-5.2074-9.631-5.2074-6.366 0-11.5233 5.1577-11.5233 11.5232 0 4.0386 2.5579 6.9501 5.2299 9.6445l10.4472 9.8771c.5474.5174 1.4483.1294 1.4483-.6239v-7.6955c0-2.2265 1.8032-4.0318 4.0289-4.0355 2.2257.0037 4.0289 1.809 4.0289 4.0355v7.6955c0 .7533.901 1.1413 1.4483.6239l10.4472-9.8771c2.6721-2.6944 5.2299-5.6059 5.2299-9.6445 0-6.3655-5.1574-11.5232-11.5233-11.5232Z"/><path fill="#111820" d="M28.2753 50.7676h2.7612v3.7284h3.5424v-3.7284h2.7595v9.9595h-2.7595v-3.784h-3.5424v3.784h-2.7612v-9.9595Zm15.0948 5.4405c0-.8228-.5973-1.3573-1.3368-1.3573-.7115 0-1.2741.5499-1.3371 1.3573h2.6739Zm-5.2351.7059v-.0284c0-2.2478 1.6076-4.0261 3.884-4.0261 2.6604 0 3.8838 1.9485 3.8838 4.2113 0 .1701 0 .3689-.0142.5547h-5.1504c.2139.8397.8253 1.267 1.6647 1.267.6406 0 1.1523-.2429 1.7075-.7841l1.4948 1.2379c-.741.9393-1.8078 1.5653-3.3448 1.5653-2.4179 0-4.1254-1.6074-4.1254-3.9976Zm16.8589-3.8836h2.7022v1.5504c.4414-1.0526 1.1529-1.735 2.4327-1.6787v2.8459h-.2271c-1.408 0-2.2056.8106-2.2056 2.5896v2.3895h-2.7022v-7.6967Zm6.8231 5.3068v-3.1308h-.9088V53.03h.9088v-1.9494h2.7042V53.03h1.7926v2.1764h-1.7926v2.6046c0 .5405.2428.767.7393.767.3561 0 .698-.099 1.0249-.255v2.1189c-.4836.2705-1.1239.4421-1.8782.4421-1.6209 0-2.5902-.7128-2.5902-2.5468Zm-36.1911-8.287c-.7924 0-1.4347.6424-1.4347 1.4347 0 .7925.6423 1.4348 1.4347 1.4348.7924 0 1.4347-.6423 1.4347-1.4348 0-.7923-.6423-1.4347-1.4347-1.4347Zm.0493 3.5448h-.0993c-.7797 0-1.4117.6321-1.4117 1.4117v5.7204h2.9227v-5.7204c0-.7796-.632-1.4117-1.4117-1.4117Zm24.2358 5.5946c-.7006.0302-1.1166-.3737-1.1166-.8583 0-.4684.3722-.7107 1.0515-.7107h1.5415v.084c-.0097.3162-.1387 1.4275-1.4764 1.485Zm4.0375-2.3311c0-2.3902-1.7076-3.9976-4.1254-3.9976-1.537 0-2.6039.626-3.3447 1.5653l1.4947 1.2378c.5551-.5413 1.067-.784 1.7076-.784.8299 0 1.4364.4185 1.6567 1.2399l.0023.0588-1.7799.0076c-2.2118.029-3.3733.8532-3.3733 2.4149 0 1.5039 1.0718 2.3104 2.9176 2.3104.9999 0 1.7681-.3923 2.2833-.927v.7418h2.5577V56.961c.0008-.0252.0034-.0482.0034-.0741v-.0284Z"/><path fill="#919395" d="M24 63.165c0-.2777.2377-.515.515-.515h.1191c.2239 0 .3825.1193.4885.2772l3.3015 4.9658 3.3016-4.9658c.1054-.1709.2772-.2772.4887-.2772h.1191c.2768 0 .515.2373.515.515v8.307c0 .2903-.2382.528-.515.528-.2911 0-.5289-.2508-.5289-.528v-6.8941l-2.9583 4.3455c-.1186.1719-.251.2645-.4354.2645-.1848 0-.33-.0926-.4494-.2645l-2.9449-4.3314v6.8926c0 .2917-.2248.5154-.515.5154-.2776 0-.5016-.2237-.5016-.5154V63.165Zm11.4694 8.2416v-8.1887c0-.2903.2377-.5281.515-.5281h5.7442c.2646 0 .476.2121.476.4756 0 .2646-.2114.4752-.476.4752h-5.2162v3.1569h4.6223c.2639 0 .4753.2238.4753.4757 0 .2634-.2114.4751-.4753.4751h-4.6223v3.2355h5.2824c.2643 0 .4753.211.4753.4756 0 .2646-.211.4752-.4753.4752h-5.8104c-.2773 0-.515-.2378-.515-.528Zm8.8531-8.1888c0-.2903.2378-.528.515-.528h2.6937c2.9055 0 4.9133 1.9948 4.9133 4.5959v.0271c0 2.6012-2.0078 4.6218-4.9133 4.6218h-2.6937c-.2772 0-.515-.2378-.515-.5281v-8.1887Zm3.2087 7.7523c2.338 0 3.8306-1.5842 3.8306-3.6315v-.0258c0-2.0476-1.4926-3.6585-3.8306-3.6585h-2.1657v7.3158h2.1657Zm7.2168-7.8181c0-.2902.2377-.528.5151-.528.2901 0 .5279.2378.5279.528v8.3198c0 .2905-.2378.528-.5279.528-.2774 0-.5151-.2375-.5151-.528V63.152Zm3.1839 8.095 3.751-8.2003c.1321-.2906.3301-.4625.6601-.4625h.0532c.3167 0 .528.1719.6468.4625l3.7508 8.1873c.0399.0927.0662.1849.0662.2645 0 .2776-.2247.5013-.5023.5013-.2505 0-.4227-.1713-.5151-.3829l-.9641-2.1259h-5.0711l-.9642 2.1529c-.0922.2245-.2638.3559-.5015.3559-.2639 0-.4752-.2106-.4752-.4752 0-.0786.0126-.1712.0654-.2776Zm6.5377-2.7068-2.1266-4.7279-2.1259 4.7279h4.2525Z"/></g><defs><clipPath id="a"><path fill="#fff" d="M0 0h90v90H0z"/></clipPath></defs></svg>