<svg xmlns="http://www.w3.org/2000/svg" width="91" height="90" fill="none"><g clip-path="url(#a)"><path fill="#fff" d="M74.2294 0H16.2295C7.39294 0 .229492 7.16344.229492 16v57.9999c0 8.8366 7.163448 16 16.000008 16h57.9999c8.8365 0 16-7.1634 16-16V16c0-8.83656-7.1635-16-16-16Z"/><path fill="#15D8CD" d="M23.845 43.7893v1.45c0 .145-.142.2899-.284.2899h-1.775c-.071 0-.142.0725-.142.145v7.6847c0 .145-.142.29-.284.29h-1.42c-.142 0-.284-.145-.284-.29v-7.6847c0-.0725-.071-.145-.142-.145h-1.775c-.142 0-.284-.1449-.284-.2899v-1.45c0-.145.142-.29.284-.29h5.822c.142 0 .284.145.284.29Zm7.81-.29h-1.42c-.142 0-.284.145-.284.29v6.8147c0 .6525-.497 1.16-1.3845 1.16-.852 0-1.349-.5075-1.349-1.16v-6.8147c0-.145-.142-.29-.284-.29h-1.42c-.142 0-.284.145-.284.29v6.8147c0 1.7399 1.42 3.1899 3.337 3.1899 1.9525 0 3.3725-1.45 3.3725-3.1899v-6.8147c0-.145-.142-.29-.284-.29Zm8.023 0h-1.42c-.142 0-.284.145-.284.29v5.4373c0 .0725-.1065.1087-.142.0362l-1.9525-5.5097c-.0355-.145-.142-.2538-.355-.2538h-1.704c-.142 0-.284.145-.284.29v9.5696c0 .145.142.29.284.29h1.42c.142 0 .284-.145.284-.29v-5.0023c0-.0725.1065-.1087.142-.0362l1.917 5.0747c.0355.1088.142.2538.3905.2538h1.6685c.142 0 .284-.145.284-.29v-9.5696c.0355-.145-.1065-.29-.2485-.29Zm7.3485 8.1197H43.654c-.071 0-.142-.0725-.142-.145v-1.7399c0-.0725.071-.145.142-.145h3.195c.142 0 .284-.145.284-.29v-1.45c0-.1449-.142-.2899-.284-.2899h-3.195c-.071 0-.142-.0725-.142-.145v-1.74c0-.0725.071-.145.142-.145h3.3015c.142 0 .284-.1449.284-.2899v-1.45c0-.145-.142-.29-.284-.29H41.808c-.142 0-.284.145-.284.29v9.5696c0 .145.142.29.284.29h5.2185c.142 0 .284-.145.284-.29V51.909c0-.145-.142-.29-.284-.29ZM81 30.0875v22.4739c0 .6163-.4615 1.0875-1.065 1.0875H55.44v6.1622c0 .6162-.4615 1.0875-1.065 1.0875h-43.31c-.6035 0-1.065-.4713-1.065-1.0875v-22.474c0-.6162.4615-1.0874 1.065-1.0874H53.31v-6.1622c0-.6163.4615-1.0875 1.065-1.0875h25.56c.6035 0 1.065.4712 1.065 1.0875Zm-27.69 8.3371H12.3075c-.1065 0-.1775.0725-.1775.1812v19.9366c0 .1088.071.1812.1775.1812h40.825c.1065 0 .1775-.0724.1775-.1812V38.4246Zm12.709 6.3072c0-.145-.142-.29-.284-.29h-1.207c-.071 0-.142-.0725-.142-.145v-5.9447c0-.0725.071-.145.142-.145h1.065c.142 0 .284-.145.284-.29v-1.3774c0-.145-.142-.29-.284-.29h-4.402c-.142 0-.284.145-.284.29v1.3774c0 .145.142.29.284.29h1.065c.071 0 .142.0725.142.145v5.9447c0 .0725-.071.145-.142.145h-1.207c-.142 0-.284.145-.284.29v1.3774c0 .145.142.29.284.29h4.686c.142 0 .284-.145.284-.29v-1.3774Zm7.952-8.1921c0-.145-.142-.29-.284-.29h-1.42c-.142 0-.284.145-.284.29v5.4372c0 .0725-.1065.1088-.142.0363l-1.9525-5.5098c-.0355-.145-.142-.2537-.355-.2537H67.865c-.142 0-.284.145-.284.29v9.5695c0 .145.142.29.284.29h1.42c.142 0 .284-.145.284-.29V41.107c0-.0725.1065-.1088.142-.0363l1.917 5.0748c.0355.1087.142.2537.3905.2537h1.6685c.142 0 .284-.145.284-.29v-9.5695Z"/></g><defs><clipPath id="a"><path fill="#fff" d="M0 0h91v90H0z"/></clipPath></defs></svg>